<mxfile host="app.diagrams.net" modified="2023-06-17T15:52:49.400Z" agent="Mozilla/5.0 (Windows NT 10.0; Win64; x64) AppleWebKit/537.36 (KHTML, like Gecko) Chrome/114.0.0.0 Safari/537.36" etag="h_NqWoGQmTulr73rC1aj" version="21.3.8" type="device">
  <diagram name="Page-1" id="iTRR-V8om6sBU_fRfcAr">
    <mxGraphModel dx="1050" dy="541" grid="1" gridSize="10" guides="1" tooltips="1" connect="1" arrows="1" fold="1" page="1" pageScale="1" pageWidth="850" pageHeight="1100" math="0" shadow="0">
      <root>
        <mxCell id="0" />
        <mxCell id="1" parent="0" />
        <mxCell id="nRnjHsoIA8CGKjihHjq7-4" style="edgeStyle=orthogonalEdgeStyle;rounded=0;orthogonalLoop=1;jettySize=auto;html=1;exitX=1;exitY=0.5;exitDx=0;exitDy=0;" edge="1" parent="1" source="nRnjHsoIA8CGKjihHjq7-1">
          <mxGeometry relative="1" as="geometry">
            <mxPoint x="510" y="250" as="targetPoint" />
          </mxGeometry>
        </mxCell>
        <mxCell id="nRnjHsoIA8CGKjihHjq7-1" value="Kafka" style="whiteSpace=wrap;html=1;aspect=fixed;" vertex="1" parent="1">
          <mxGeometry x="240" y="200" width="100" height="100" as="geometry" />
        </mxCell>
        <mxCell id="nRnjHsoIA8CGKjihHjq7-3" style="edgeStyle=orthogonalEdgeStyle;rounded=0;orthogonalLoop=1;jettySize=auto;html=1;exitX=1;exitY=0.5;exitDx=0;exitDy=0;entryX=0;entryY=0.5;entryDx=0;entryDy=0;" edge="1" parent="1" source="nRnjHsoIA8CGKjihHjq7-2" target="nRnjHsoIA8CGKjihHjq7-1">
          <mxGeometry relative="1" as="geometry" />
        </mxCell>
        <mxCell id="nRnjHsoIA8CGKjihHjq7-2" value="Data Source" style="ellipse;whiteSpace=wrap;html=1;aspect=fixed;" vertex="1" parent="1">
          <mxGeometry x="70" y="200" width="100" height="100" as="geometry" />
        </mxCell>
        <mxCell id="nRnjHsoIA8CGKjihHjq7-6" style="edgeStyle=orthogonalEdgeStyle;rounded=0;orthogonalLoop=1;jettySize=auto;html=1;exitX=1;exitY=0.5;exitDx=0;exitDy=0;" edge="1" parent="1" source="nRnjHsoIA8CGKjihHjq7-5" target="nRnjHsoIA8CGKjihHjq7-7">
          <mxGeometry relative="1" as="geometry">
            <mxPoint x="700" y="250" as="targetPoint" />
          </mxGeometry>
        </mxCell>
        <mxCell id="nRnjHsoIA8CGKjihHjq7-5" value="Streaming Apache Beam Job" style="whiteSpace=wrap;html=1;aspect=fixed;" vertex="1" parent="1">
          <mxGeometry x="450" y="200" width="100" height="100" as="geometry" />
        </mxCell>
        <mxCell id="nRnjHsoIA8CGKjihHjq7-7" value="MySql" style="rounded=0;whiteSpace=wrap;html=1;" vertex="1" parent="1">
          <mxGeometry x="630" y="195" width="120" height="110" as="geometry" />
        </mxCell>
      </root>
    </mxGraphModel>
  </diagram>
</mxfile>
